  <svg width="204" height="206" viewBox="0 0 204 206" fill="none" xmlns="http://www.w3.org/2000/svg">
    <path
      d="M149.513 88.8995C149.513 118.665 124.87 200.461 94.471 200.461C64.072 200.461 39.4287 118.665 39.4287 88.8995C39.4287 59.1344 64.072 35.0051 94.471 35.0051C124.87 35.0051 149.513 59.1344 149.513 88.8995Z"
      fill="#FFFF1A"
    />
    <path
      d="M149.513 88.8995C149.513 118.665 124.87 200.461 94.471 200.461C64.072 200.461 39.4287 118.665 39.4287 88.8995C39.4287 59.1344 64.072 35.0051 94.471 35.0051C124.87 35.0051 149.513 59.1344 149.513 88.8995Z"
      fill="#FFFF1A"
    />
    <path d="M72.4541 179.442H115.553" stroke="black" strokeWidth="10" strokeLinecap="round" />
    <path d="M76.8574 190.221H112.26" stroke="black" strokeWidth="10" strokeLinecap="round" />
    <path d="M82.3616 201H105.963" stroke="black" strokeWidth="10" strokeLinecap="round" />
    <path d="M92.4558 133V175.199" stroke="black" strokeWidth="3" strokeLinecap="round" />
    <path
      d="M93.3924 134.538C93.3924 128.663 92.7002 120.239 99.0362 116.955C102.233 115.298 105.193 115.099 105.193 119.188C105.193 123.079 103.146 126.997 100.319 129.765C98.6208 131.428 96.175 134.3 93.9055 135.04"
      stroke="black"
      strokeWidth="3"
      strokeLinecap="round"
    />
    <path
      d="M90.3942 136.713C85.7977 132.936 78.7625 128.041 80.2656 121.177C81.0241 117.714 82.771 115.366 85.97 117.994C89.0144 120.495 90.7641 124.549 91.1126 128.449C91.3219 130.792 91.9963 134.472 91.117 136.651"
      stroke="black"
      strokeWidth="3"
      strokeLinecap="round"
    />
    <path d="M154.174 56.221L172.714 43.048" stroke="#FFFF1A" strokeWidth="2" strokeLinecap="round" />
    <path d="M75.0552 26.9985L68.552 1" stroke="#FFFF1A" strokeWidth="2" strokeLinecap="round" />
    <path d="M27.2435 95.2616L2.00003 84.9885" stroke="#FFFF1A" strokeWidth="2" strokeLinecap="round" />
    <path d="M114.483 28.9666L125.186 9.13572" stroke="#FFFF1A" strokeWidth="2" strokeLinecap="round" />
    <path d="M94.1968 25.0976L94.2838 2.66838" stroke="#FFFF1A" strokeWidth="2" strokeLinecap="round" />
    <path d="M137.404 40.348L167.079 11.2915" stroke="#FFFF1A" strokeWidth="2" strokeLinecap="round" />
    <path d="M163.824 79.4751L202 62.4073" stroke="#FFFF1A" strokeWidth="2" strokeLinecap="round" />
    <path d="M56.4264 35.0177L44.9556 15.603" stroke="#FFFF1A" strokeWidth="2" strokeLinecap="round" />
    <path d="M27.363 71.5976L7.50418 60.4179" stroke="#FFFF1A" strokeWidth="2" strokeLinecap="round" />
    <path d="M38.2614 49.9885L9.66294 19.9146" stroke="#FFFF1A" strokeWidth="2" strokeLinecap="round" />
  </svg>